<?xml version="1.0" encoding="UTF-8" standalone="no"?>
<svg
   xmlns:dc="http://purl.org/dc/elements/1.1/"
   xmlns:cc="http://creativecommons.org/ns#"
   xmlns:rdf="http://www.w3.org/1999/02/22-rdf-syntax-ns#"
   xmlns:svg="http://www.w3.org/2000/svg"
   xmlns="http://www.w3.org/2000/svg"
   xmlns:sodipodi="http://sodipodi.sourceforge.net/DTD/sodipodi-0.dtd"
   xmlns:inkscape="http://www.inkscape.org/namespaces/inkscape"
   width="210mm"
   height="297mm"
   viewBox="0 0 210 297"
   version="1.1"
   id="svg32"
   inkscape:version="1.0.2 (1.0.2+r75+1)"
   sodipodi:docname="logo_cfb.svg"
   inkscape:export-filename="/home/michel/Documents/Geodata/SourceCode/case_divadmin/sp_eda/imgs/logo_eda.png"
   inkscape:export-xdpi="246"
   inkscape:export-ydpi="246">
  <defs
     id="defs26">
    <clipPath
       clipPathUnits="userSpaceOnUse"
       id="clipPath631">
      <path
         d="M 965.691,2539.5 C 885.758,2452.77 751.434,2437.34 619.188,2431.49 548.813,2427.63 478.789,2426.3 408.359,2420.61 276.156,2409.93 140.973,2392.29 60.9258,2305.51 44.4531,2287.66 30.3555,2266.76 19.1133,2242.16 4.16406,2209.48 0.128906,2176.57 0.128906,2143.57 v -53.44 c -0.007812,32.99 4.058594,65.91 18.992194,98.58 11.2422,24.6 25.3594,45.51 41.8047,63.34 80.0582,86.79 215.2262,104.42 347.4372,115.1 70.446,5.69 140.43,7.03 210.825,10.89 132.007,5.84 266.574,21.32 346.5,108.03 15.41,16.72 28.652,36.25 39.502,58.85 v 53.41 c -10.87,-22.6 -24.1,-42.12 -39.499,-58.83 z"
         id="path629" />
    </clipPath>
    <linearGradient
       x1="0"
       y1="0"
       x2="1"
       y2="0"
       gradientUnits="userSpaceOnUse"
       gradientTransform="matrix(966.839,41.721,0,-966.839,10.7729,2323.01)"
       spreadMethod="pad"
       id="linearGradient651">
      <stop
         style="stop-opacity:1;stop-color:#a3a3a4"
         offset="0"
         id="stop633" />
      <stop
         style="stop-opacity:1;stop-color:#ffffff"
         offset="0.21106469"
         id="stop635" />
      <stop
         style="stop-opacity:1;stop-color:#ffffff"
         offset="0.301088"
         id="stop637" />
      <stop
         style="stop-opacity:1;stop-color:#dcdada"
         offset="0.44066871"
         id="stop639" />
      <stop
         style="stop-opacity:1;stop-color:#dcdada"
         offset="0.615876"
         id="stop641" />
      <stop
         style="stop-opacity:1;stop-color:#dcdada"
         offset="0.71945428"
         id="stop643" />
      <stop
         style="stop-opacity:1;stop-color:#ffffff"
         offset="0.888686"
         id="stop645" />
      <stop
         style="stop-opacity:1;stop-color:#ffffff"
         offset="0.91209439"
         id="stop647" />
      <stop
         style="stop-opacity:1;stop-color:#cdcbcb"
         offset="1"
         id="stop649" />
    </linearGradient>
    <clipPath
       clipPathUnits="userSpaceOnUse"
       id="clipPath661">
      <path
         d="m 965.703,2436.84 c -79.933,-86.72 -214.035,-98.66 -346.515,-104.52 -70.43,-3.86 -140.34,-8.74 -210.817,-14.43 C 276.145,2307.21 141,2289.57 60.9453,2202.78 44.4648,2184.93 30.375,2164.02 19.1289,2139.44 4.19141,2106.76 0.121094,2073.85 0.128906,2040.85 v -53.45 c -0.027343,32.99 4.062504,65.91 19.011694,98.59 11.2422,24.59 25.3399,45.49 41.8086,63.33 80.0628,86.8 215.2108,104.43 347.4218,115.11 70.488,5.7 140.383,10.59 210.817,14.46 132.007,5.84 266.601,17.82 346.531,104.53 15.379,16.7 28.621,36.22 39.471,58.81 v 53.42 c -10.85,-22.58 -24.092,-42.1 -39.487,-58.81 z"
         id="path659" />
    </clipPath>
    <linearGradient
       x1="0"
       y1="0"
       x2="1"
       y2="0"
       gradientUnits="userSpaceOnUse"
       gradientTransform="matrix(966.858,41.7218,0,-966.858,10.7532,2220.3)"
       spreadMethod="pad"
       id="linearGradient681">
      <stop
         style="stop-opacity:1;stop-color:#a3a3a4"
         offset="0"
         id="stop663" />
      <stop
         style="stop-opacity:1;stop-color:#ffffff"
         offset="0.21106469"
         id="stop665" />
      <stop
         style="stop-opacity:1;stop-color:#ffffff"
         offset="0.301088"
         id="stop667" />
      <stop
         style="stop-opacity:1;stop-color:#dcdada"
         offset="0.44066871"
         id="stop669" />
      <stop
         style="stop-opacity:1;stop-color:#dcdada"
         offset="0.615876"
         id="stop671" />
      <stop
         style="stop-opacity:1;stop-color:#dcdada"
         offset="0.71945428"
         id="stop673" />
      <stop
         style="stop-opacity:1;stop-color:#ffffff"
         offset="0.888686"
         id="stop675" />
      <stop
         style="stop-opacity:1;stop-color:#ffffff"
         offset="0.91209439"
         id="stop677" />
      <stop
         style="stop-opacity:1;stop-color:#cdcbcb"
         offset="1"
         id="stop679" />
    </linearGradient>
    <clipPath
       clipPathUnits="userSpaceOnUse"
       id="clipPath691">
      <path
         d="m 965.711,2334.09 c -79.914,-86.73 -213.563,-102.25 -346.523,-108.14 -70.45,-3.87 -140.301,-5.2 -210.809,-10.89 C 276.18,2204.38 141.016,2186.75 60.9453,2099.95 44.4922,2082.12 30.3789,2061.21 19.1328,2036.61 4.20703,2003.94 0.121094,1971.02 0.128906,1938.02 v -53.45 c 0.015625,33.01 4.082034,65.92 19.011694,98.59 11.2578,24.6 25.3555,45.5 41.8203,63.35 80.0591,86.78 215.2151,104.42 347.4181,115.1 70.496,5.69 140.359,7.02 210.809,10.88 132.718,5.88 266.597,21.44 346.542,108.18 15.383,16.7 28.606,36.21 39.46,58.77 v 53.43 c -10.854,-22.59 -24.069,-42.08 -39.479,-58.78 z"
         id="path689" />
    </clipPath>
    <linearGradient
       x1="0"
       y1="0"
       x2="1"
       y2="0"
       gradientUnits="userSpaceOnUse"
       gradientTransform="matrix(966.868,41.7222,0,-966.868,10.7437,2117.49)"
       spreadMethod="pad"
       id="linearGradient711">
      <stop
         style="stop-opacity:1;stop-color:#a3a3a4"
         offset="0"
         id="stop693" />
      <stop
         style="stop-opacity:1;stop-color:#ffffff"
         offset="0.21106469"
         id="stop695" />
      <stop
         style="stop-opacity:1;stop-color:#ffffff"
         offset="0.301088"
         id="stop697" />
      <stop
         style="stop-opacity:1;stop-color:#dcdada"
         offset="0.44066871"
         id="stop699" />
      <stop
         style="stop-opacity:1;stop-color:#dcdada"
         offset="0.615876"
         id="stop701" />
      <stop
         style="stop-opacity:1;stop-color:#dcdada"
         offset="0.71945428"
         id="stop703" />
      <stop
         style="stop-opacity:1;stop-color:#ffffff"
         offset="0.888686"
         id="stop705" />
      <stop
         style="stop-opacity:1;stop-color:#ffffff"
         offset="0.91209439"
         id="stop707" />
      <stop
         style="stop-opacity:1;stop-color:#cdcbcb"
         offset="1"
         id="stop709" />
    </linearGradient>
    <clipPath
       clipPathUnits="userSpaceOnUse"
       id="clipPath721">
      <path
         d="m 965.746,2128.67 c -79.937,-86.73 -213.84,-102.4 -346.558,-108.27 -70.493,-3.88 -140.254,-5.2 -210.797,-10.89 C 276.184,1998.83 141.035,1981.19 60.9844,1894.41 44.5352,1876.57 30.4141,1855.66 19.1836,1831.07 4.24219,1798.4 0.121094,1765.48 0.128906,1732.48 v -53.45 c -0.007812,33 4.121094,65.91 19.054694,98.59 11.2344,24.59 25.3555,45.49 41.8125,63.34 80.0589,86.78 215.1879,104.42 347.4019,115.1 70.575,5.71 140.262,7.02 210.79,10.88 132.246,5.86 266.636,21.59 346.562,108.32 15.391,16.68 28.594,36.17 39.44,58.7 v 53.44 c -10.85,-22.55 -24.057,-42.04 -39.444,-58.73 z"
         id="path719" />
    </clipPath>
    <linearGradient
       x1="0"
       y1="0"
       x2="1"
       y2="0"
       gradientUnits="userSpaceOnUse"
       gradientTransform="matrix(966.913,41.7242,0,-966.913,10.6967,1911.99)"
       spreadMethod="pad"
       id="linearGradient741">
      <stop
         style="stop-opacity:1;stop-color:#a3a3a4"
         offset="0"
         id="stop723" />
      <stop
         style="stop-opacity:1;stop-color:#ffffff"
         offset="0.21106469"
         id="stop725" />
      <stop
         style="stop-opacity:1;stop-color:#ffffff"
         offset="0.301088"
         id="stop727" />
      <stop
         style="stop-opacity:1;stop-color:#dcdada"
         offset="0.44066871"
         id="stop729" />
      <stop
         style="stop-opacity:1;stop-color:#dcdada"
         offset="0.615876"
         id="stop731" />
      <stop
         style="stop-opacity:1;stop-color:#dcdada"
         offset="0.71945428"
         id="stop733" />
      <stop
         style="stop-opacity:1;stop-color:#ffffff"
         offset="0.888686"
         id="stop735" />
      <stop
         style="stop-opacity:1;stop-color:#ffffff"
         offset="0.91209439"
         id="stop737" />
      <stop
         style="stop-opacity:1;stop-color:#cdcbcb"
         offset="1"
         id="stop739" />
    </linearGradient>
    <clipPath
       clipPathUnits="userSpaceOnUse"
       id="clipPath751">
      <path
         d="M 965.77,2026.02 C 885.836,1939.3 751.668,1923.53 619.188,1917.68 548.66,1913.81 478.977,1912.49 408.398,1906.79 276.203,1896.11 141.059,1878.48 61.0078,1791.7 44.543,1773.85 30.4414,1752.94 19.207,1728.35 4.26172,1695.67 0.121094,1662.75 0.128906,1629.75 v -53.45 c 0,33.01 4.136724,65.91 19.062494,98.58 11.2617,24.61 25.3594,45.5 41.8125,63.35 80.0621,86.79 215.1911,104.43 347.4061,115.11 70.617,5.71 140.207,7.01 210.778,10.89 132.718,5.87 266.66,21.65 346.582,108.37 15.382,16.68 28.582,36.15 39.42,58.68 v 53.43 c -10.85,-22.54 -24.069,-42.02 -39.42,-58.69 z"
         id="path749" />
    </clipPath>
    <linearGradient
       x1="0"
       y1="0"
       x2="1"
       y2="0"
       gradientUnits="userSpaceOnUse"
       gradientTransform="matrix(966.918,41.7244,0,-966.918,10.6921,1809.27)"
       spreadMethod="pad"
       id="linearGradient771">
      <stop
         style="stop-opacity:1;stop-color:#a3a3a4"
         offset="0"
         id="stop753" />
      <stop
         style="stop-opacity:1;stop-color:#ffffff"
         offset="0.21106469"
         id="stop755" />
      <stop
         style="stop-opacity:1;stop-color:#ffffff"
         offset="0.301088"
         id="stop757" />
      <stop
         style="stop-opacity:1;stop-color:#dcdada"
         offset="0.44066871"
         id="stop759" />
      <stop
         style="stop-opacity:1;stop-color:#dcdada"
         offset="0.615876"
         id="stop761" />
      <stop
         style="stop-opacity:1;stop-color:#dcdada"
         offset="0.71945428"
         id="stop763" />
      <stop
         style="stop-opacity:1;stop-color:#ffffff"
         offset="0.888686"
         id="stop765" />
      <stop
         style="stop-opacity:1;stop-color:#ffffff"
         offset="0.91209439"
         id="stop767" />
      <stop
         style="stop-opacity:1;stop-color:#cdcbcb"
         offset="1"
         id="stop769" />
    </linearGradient>
    <clipPath
       clipPathUnits="userSpaceOnUse"
       id="clipPath781">
      <path
         d="M 965.672,2588.73 C 885.75,2502.02 751.434,2481.74 619.188,2475.89 611.344,2475.46 470.918,2470.05 408.359,2465 276.141,2454.32 140.957,2436.69 60.9063,2349.9 44.4648,2332.06 30.3555,2311.16 19.1094,2286.56 4.17969,2253.89 0.125,2220.96 0.128906,2187.97 v -44.4 c 0,33 4.035154,65.91 18.984394,98.59 11.2422,24.6 25.3398,45.5 41.8125,63.35 80.0472,86.78 215.2302,104.42 347.4332,115.1 70.43,5.69 140.454,7.02 210.829,10.88 133.671,5.92 266.57,21.28 346.503,108.01 15.399,16.71 28.629,36.23 39.499,58.83 v 49.27 c -10.854,-22.6 -24.096,-42.14 -39.518,-58.87 z"
         id="path779" />
    </clipPath>
    <linearGradient
       x1="0"
       y1="0"
       x2="1"
       y2="0"
       gradientUnits="userSpaceOnUse"
       gradientTransform="matrix(934.834,40.3399,0,-934.834,28.1513,2375.11)"
       spreadMethod="pad"
       id="linearGradient801">
      <stop
         style="stop-opacity:1;stop-color:#231f20"
         offset="0"
         id="stop783" />
      <stop
         style="stop-opacity:1;stop-color:#231f20"
         offset="0.00182482"
         id="stop785" />
      <stop
         style="stop-opacity:1;stop-color:#454141"
         offset="0.225358"
         id="stop787" />
      <stop
         style="stop-opacity:1;stop-color:#231f20"
         offset="0.54568646"
         id="stop789" />
      <stop
         style="stop-opacity:1;stop-color:#231f20"
         offset="0.548358"
         id="stop791" />
      <stop
         style="stop-opacity:1;stop-color:#231f20"
         offset="0.66135614"
         id="stop793" />
      <stop
         style="stop-opacity:1;stop-color:#3c3838"
         offset="0.849445"
         id="stop795" />
      <stop
         style="stop-opacity:1;stop-color:#3c3838"
         offset="0.85771597"
         id="stop797" />
      <stop
         style="stop-opacity:1;stop-color:#231f20"
         offset="1"
         id="stop799" />
    </linearGradient>
    <clipPath
       clipPathUnits="userSpaceOnUse"
       id="clipPath811">
      <path
         d="m 965.688,2486.07 c -79.926,-86.71 -214.02,-102.18 -346.5,-108.03 -70.395,-3.86 -140.379,-5.2 -210.825,-10.89 C 276.152,2356.47 140.984,2338.84 60.9258,2252.05 44.4805,2234.22 30.3633,2213.31 19.1211,2188.71 4.1875,2156.04 0.121094,2123.12 0.128906,2090.13 v -49.28 c -0.007812,33 4.062504,65.91 18.999994,98.59 11.2461,24.58 25.3359,45.49 41.8164,63.34 80.0547,86.79 215.1997,104.43 347.4257,115.11 70.477,5.69 140.387,10.57 210.817,14.43 132.007,5.84 266.582,17.8 346.515,104.52 15.395,16.71 28.637,36.23 39.487,58.81 v 49.27 c -10.85,-22.6 -24.092,-42.13 -39.502,-58.85 z"
         id="path809" />
    </clipPath>
    <linearGradient
       x1="0"
       y1="0"
       x2="1"
       y2="0"
       gradientUnits="userSpaceOnUse"
       gradientTransform="matrix(934.851,40.3407,0,-934.851,28.1341,2272.41)"
       spreadMethod="pad"
       id="linearGradient831">
      <stop
         style="stop-opacity:1;stop-color:#231f20"
         offset="0"
         id="stop813" />
      <stop
         style="stop-opacity:1;stop-color:#231f20"
         offset="0.00182482"
         id="stop815" />
      <stop
         style="stop-opacity:1;stop-color:#454141"
         offset="0.225358"
         id="stop817" />
      <stop
         style="stop-opacity:1;stop-color:#231f20"
         offset="0.54568646"
         id="stop819" />
      <stop
         style="stop-opacity:1;stop-color:#231f20"
         offset="0.548358"
         id="stop821" />
      <stop
         style="stop-opacity:1;stop-color:#231f20"
         offset="0.66135614"
         id="stop823" />
      <stop
         style="stop-opacity:1;stop-color:#3c3838"
         offset="0.849445"
         id="stop825" />
      <stop
         style="stop-opacity:1;stop-color:#3c3838"
         offset="0.85771597"
         id="stop827" />
      <stop
         style="stop-opacity:1;stop-color:#231f20"
         offset="1"
         id="stop829" />
    </linearGradient>
    <clipPath
       clipPathUnits="userSpaceOnUse"
       id="clipPath841">
      <path
         d="m 965.719,2383.42 c -79.93,-86.71 -214.758,-98.71 -346.531,-104.53 -70.434,-3.87 -140.329,-8.76 -210.817,-14.46 C 276.16,2253.75 141.012,2236.12 60.9492,2149.32 44.4805,2131.48 30.3828,2110.58 19.1406,2085.99 4.19141,2053.31 0.101563,2020.39 0.128906,1987.4 v -49.38 c -0.007812,33 4.078124,65.92 19.003894,98.59 11.2461,24.6 25.3594,45.51 41.8125,63.34 80.0707,86.8 215.2347,104.43 347.4337,115.11 70.508,5.69 140.359,7.02 210.809,10.89 132.007,5.84 266.609,21.41 346.523,108.14 15.41,16.7 28.625,36.19 39.479,58.78 v 49.36 c -10.85,-22.59 -24.092,-42.11 -39.471,-58.81 z"
         id="path839" />
    </clipPath>
    <linearGradient
       x1="0"
       y1="0"
       x2="1"
       y2="0"
       gradientUnits="userSpaceOnUse"
       gradientTransform="matrix(934.868,40.3414,0,-934.868,28.116,2169.65)"
       spreadMethod="pad"
       id="linearGradient861">
      <stop
         style="stop-opacity:1;stop-color:#231f20"
         offset="0"
         id="stop843" />
      <stop
         style="stop-opacity:1;stop-color:#231f20"
         offset="0.00182482"
         id="stop845" />
      <stop
         style="stop-opacity:1;stop-color:#454141"
         offset="0.225358"
         id="stop847" />
      <stop
         style="stop-opacity:1;stop-color:#231f20"
         offset="0.54568646"
         id="stop849" />
      <stop
         style="stop-opacity:1;stop-color:#231f20"
         offset="0.548358"
         id="stop851" />
      <stop
         style="stop-opacity:1;stop-color:#231f20"
         offset="0.66135614"
         id="stop853" />
      <stop
         style="stop-opacity:1;stop-color:#3c3838"
         offset="0.849445"
         id="stop855" />
      <stop
         style="stop-opacity:1;stop-color:#3c3838"
         offset="0.85771597"
         id="stop857" />
      <stop
         style="stop-opacity:1;stop-color:#231f20"
         offset="1"
         id="stop859" />
    </linearGradient>
    <clipPath
       clipPathUnits="userSpaceOnUse"
       id="clipPath871">
      <path
         d="M 965.75,2178.03 C 885.805,2091.29 751.906,2075.65 619.188,2069.78 548.672,2065.91 478.965,2064.6 408.398,2058.9 276.18,2048.2 141.023,2030.57 60.9844,1943.78 44.5,1925.94 30.418,1905.04 19.168,1880.44 4.23047,1847.76 0.144531,1814.85 0.128906,1781.85 v -49.37 c -0.007812,33 4.113284,65.92 19.054694,98.59 11.2305,24.59 25.3516,45.5 41.8008,63.34 80.0506,86.78 215.1996,104.42 347.4066,115.1 70.543,5.69 140.304,7.01 210.797,10.89 132.007,5.84 266.621,21.54 346.558,108.27 15.387,16.69 28.594,36.18 39.444,58.73 v 49.33 c -10.85,-22.55 -24.069,-42.03 -39.44,-58.7 z"
         id="path869" />
    </clipPath>
    <linearGradient
       x1="0"
       y1="0"
       x2="1"
       y2="0"
       gradientUnits="userSpaceOnUse"
       gradientTransform="matrix(934.876,40.3417,0,-934.876,28.1083,1964.13)"
       spreadMethod="pad"
       id="linearGradient891">
      <stop
         style="stop-opacity:1;stop-color:#231f20"
         offset="0"
         id="stop873" />
      <stop
         style="stop-opacity:1;stop-color:#231f20"
         offset="0.00182482"
         id="stop875" />
      <stop
         style="stop-opacity:1;stop-color:#454141"
         offset="0.225358"
         id="stop877" />
      <stop
         style="stop-opacity:1;stop-color:#231f20"
         offset="0.54568646"
         id="stop879" />
      <stop
         style="stop-opacity:1;stop-color:#231f20"
         offset="0.548358"
         id="stop881" />
      <stop
         style="stop-opacity:1;stop-color:#231f20"
         offset="0.66135614"
         id="stop883" />
      <stop
         style="stop-opacity:1;stop-color:#3c3838"
         offset="0.849445"
         id="stop885" />
      <stop
         style="stop-opacity:1;stop-color:#3c3838"
         offset="0.85771597"
         id="stop887" />
      <stop
         style="stop-opacity:1;stop-color:#231f20"
         offset="1"
         id="stop889" />
    </linearGradient>
    <clipPath
       clipPathUnits="userSpaceOnUse"
       id="clipPath901">
      <path
         d="M 965.75,2075.26 C 885.824,1988.53 751.434,1972.8 619.188,1966.94 548.66,1963.08 478.973,1961.77 408.398,1956.06 276.184,1945.38 141.055,1927.74 60.9961,1840.96 44.5391,1823.11 30.418,1802.21 19.1836,1777.62 4.25,1744.94 0.121094,1712.03 0.128906,1679.03 v -49.28 c -0.007812,33 4.132814,65.92 19.078094,98.6 11.2344,24.59 25.336,45.5 41.8008,63.35 80.0512,86.78 215.1952,104.41 347.3902,115.09 70.579,5.7 140.262,7.02 210.79,10.89 132.48,5.85 266.648,21.62 346.582,108.34 15.351,16.67 28.57,36.15 39.42,58.69 v 49.25 c -10.846,-22.53 -24.049,-42.02 -39.44,-58.7 z"
         id="path899" />
    </clipPath>
    <linearGradient
       x1="0"
       y1="0"
       x2="1"
       y2="0"
       gradientUnits="userSpaceOnUse"
       gradientTransform="matrix(934.908,40.3431,0,-934.908,28.0744,1861.38)"
       spreadMethod="pad"
       id="linearGradient921">
      <stop
         style="stop-opacity:1;stop-color:#231f20"
         offset="0"
         id="stop903" />
      <stop
         style="stop-opacity:1;stop-color:#231f20"
         offset="0.00182482"
         id="stop905" />
      <stop
         style="stop-opacity:1;stop-color:#454141"
         offset="0.225358"
         id="stop907" />
      <stop
         style="stop-opacity:1;stop-color:#231f20"
         offset="0.54568646"
         id="stop909" />
      <stop
         style="stop-opacity:1;stop-color:#231f20"
         offset="0.548358"
         id="stop911" />
      <stop
         style="stop-opacity:1;stop-color:#231f20"
         offset="0.66135614"
         id="stop913" />
      <stop
         style="stop-opacity:1;stop-color:#3c3838"
         offset="0.849445"
         id="stop915" />
      <stop
         style="stop-opacity:1;stop-color:#3c3838"
         offset="0.85771597"
         id="stop917" />
      <stop
         style="stop-opacity:1;stop-color:#231f20"
         offset="1"
         id="stop919" />
    </linearGradient>
    <clipPath
       clipPathUnits="userSpaceOnUse"
       id="clipPath931">
      <path
         d="M 965.77,1972.6 C 885.848,1885.88 751.434,1870.08 619.188,1864.23 548.617,1860.35 479.027,1859.05 408.41,1853.34 276.195,1842.66 141.066,1825.02 61.0039,1738.23 44.5508,1720.38 30.4531,1699.49 19.1914,1674.88 4.26563,1642.21 0.128906,1609.31 0.128906,1576.3 v -49.27 c -0.011718,32.99 4.152344,65.91 19.081994,98.58 11.2422,24.59 25.3438,45.5 41.8125,63.35 80.0506,86.78 215.1796,104.42 347.3866,115.09 70.102,5.67 139.949,7.07 209.996,10.85 h -0.004 c 132.559,5.87 267.461,26.61 347.387,113.34 15.348,16.66 28.555,36.12 39.401,58.65 v 44.39 c -10.838,-22.53 -24.038,-42 -39.42,-58.68 z"
         id="path929" />
    </clipPath>
    <linearGradient
       x1="0"
       y1="0"
       x2="1"
       y2="0"
       gradientUnits="userSpaceOnUse"
       gradientTransform="matrix(934.921,40.3437,0,-934.921,28.0608,1758.67)"
       spreadMethod="pad"
       id="linearGradient951">
      <stop
         style="stop-opacity:1;stop-color:#231f20"
         offset="0"
         id="stop933" />
      <stop
         style="stop-opacity:1;stop-color:#231f20"
         offset="0.00182482"
         id="stop935" />
      <stop
         style="stop-opacity:1;stop-color:#454141"
         offset="0.225358"
         id="stop937" />
      <stop
         style="stop-opacity:1;stop-color:#231f20"
         offset="0.54568646"
         id="stop939" />
      <stop
         style="stop-opacity:1;stop-color:#231f20"
         offset="0.548358"
         id="stop941" />
      <stop
         style="stop-opacity:1;stop-color:#231f20"
         offset="0.66135614"
         id="stop943" />
      <stop
         style="stop-opacity:1;stop-color:#3c3838"
         offset="0.849445"
         id="stop945" />
      <stop
         style="stop-opacity:1;stop-color:#3c3838"
         offset="0.85771597"
         id="stop947" />
      <stop
         style="stop-opacity:1;stop-color:#231f20"
         offset="1"
         id="stop949" />
    </linearGradient>
    <clipPath
       clipPathUnits="userSpaceOnUse"
       id="clipPath961">
      <path
         d="m 965.734,2231.43 c -79.929,-86.72 -213.113,-102.3 -346.546,-108.21 -70.504,-3.86 -140.243,-5.18 -210.797,-10.88 C 276.172,2101.66 141.039,2084.03 60.9648,1997.23 44.5117,1979.38 30.4102,1958.48 19.1641,1933.89 4.21875,1901.21 0.125,1868.3 0.128906,1835.3 v -53.45 c 0.015625,33 4.101564,65.91 19.039094,98.59 11.25,24.6 25.332,45.5 41.8164,63.34 80.0386,86.79 215.1956,104.42 347.4136,115.12 70.567,5.7 140.274,7.01 210.79,10.88 132.246,5.85 266.617,21.51 346.562,108.25 15.371,16.67 28.59,36.15 39.44,58.7 v 53.43 c -10.862,-22.55 -24.073,-42.05 -39.456,-58.73 z"
         id="path959" />
    </clipPath>
    <linearGradient
       x1="0"
       y1="0"
       x2="1"
       y2="0"
       gradientUnits="userSpaceOnUse"
       gradientTransform="matrix(966.88,41.7228,0,-966.88,10.7312,2014.78)"
       spreadMethod="pad"
       id="linearGradient981">
      <stop
         style="stop-opacity:1;stop-color:#a3a3a4"
         offset="0"
         id="stop963" />
      <stop
         style="stop-opacity:1;stop-color:#ffffff"
         offset="0.21106469"
         id="stop965" />
      <stop
         style="stop-opacity:1;stop-color:#ffffff"
         offset="0.301088"
         id="stop967" />
      <stop
         style="stop-opacity:1;stop-color:#dcdada"
         offset="0.44066871"
         id="stop969" />
      <stop
         style="stop-opacity:1;stop-color:#dcdada"
         offset="0.615876"
         id="stop971" />
      <stop
         style="stop-opacity:1;stop-color:#dcdada"
         offset="0.71945428"
         id="stop973" />
      <stop
         style="stop-opacity:1;stop-color:#ffffff"
         offset="0.888686"
         id="stop975" />
      <stop
         style="stop-opacity:1;stop-color:#ffffff"
         offset="0.91209439"
         id="stop977" />
      <stop
         style="stop-opacity:1;stop-color:#cdcbcb"
         offset="1"
         id="stop979" />
    </linearGradient>
    <clipPath
       clipPathUnits="userSpaceOnUse"
       id="clipPath991">
      <path
         d="m 965.73,2280.67 c -79.945,-86.74 -214.535,-102.33 -346.542,-108.18 -67.637,-3.71 -134.731,-5.08 -202.372,-10.22 -2.808,-0.22 -5.625,-0.43 -8.437,-0.66 C 276.176,2150.93 141.02,2133.29 60.9609,2046.51 44.4961,2028.66 30.3984,2007.76 19.1406,1983.16 4.21094,1950.49 0.144531,1917.58 0.128906,1884.57 v -49.27 c -0.003906,33 4.089844,65.91 19.035194,98.59 11.2461,24.59 25.3476,45.49 41.8007,63.34 80.0742,86.8 215.2072,104.43 347.4262,115.11 70.554,5.7 140.293,7.02 210.797,10.88 132.718,5.88 266.617,21.49 346.546,108.21 15.383,16.68 28.594,36.18 39.456,58.73 v 49.28 c -10.854,-22.56 -24.077,-42.07 -39.46,-58.77 z"
         id="path989" />
    </clipPath>
    <linearGradient
       x1="0"
       y1="0"
       x2="1"
       y2="0"
       gradientUnits="userSpaceOnUse"
       gradientTransform="matrix(934.864,40.3412,0,-934.864,28.1206,2066.9)"
       spreadMethod="pad"
       id="linearGradient1011">
      <stop
         style="stop-opacity:1;stop-color:#231f20"
         offset="0"
         id="stop993" />
      <stop
         style="stop-opacity:1;stop-color:#231f20"
         offset="0.00182482"
         id="stop995" />
      <stop
         style="stop-opacity:1;stop-color:#454141"
         offset="0.225358"
         id="stop997" />
      <stop
         style="stop-opacity:1;stop-color:#231f20"
         offset="0.54568646"
         id="stop999" />
      <stop
         style="stop-opacity:1;stop-color:#231f20"
         offset="0.548358"
         id="stop1001" />
      <stop
         style="stop-opacity:1;stop-color:#231f20"
         offset="0.66135614"
         id="stop1003" />
      <stop
         style="stop-opacity:1;stop-color:#3c3838"
         offset="0.849445"
         id="stop1005" />
      <stop
         style="stop-opacity:1;stop-color:#3c3838"
         offset="0.85771597"
         id="stop1007" />
      <stop
         style="stop-opacity:1;stop-color:#231f20"
         offset="1"
         id="stop1009" />
    </linearGradient>
  </defs>
  <sodipodi:namedview
     id="base"
     pagecolor="#ffffff"
     bordercolor="#666666"
     borderopacity="1.0"
     inkscape:pageopacity="0.0"
     inkscape:pageshadow="2"
     inkscape:zoom="0.75900673"
     inkscape:cx="396.85039"
     inkscape:cy="561.25984"
     inkscape:document-units="mm"
     inkscape:current-layer="layer1"
     inkscape:document-rotation="0"
     showgrid="false"
     inkscape:window-width="1866"
     inkscape:window-height="1043"
     inkscape:window-x="1420"
     inkscape:window-y="0"
     inkscape:window-maximized="1" />
  <metadata
     id="metadata29">
    <rdf:RDF>
      <cc:Work
         rdf:about="">
        <dc:format>image/svg+xml</dc:format>
        <dc:type
           rdf:resource="http://purl.org/dc/dcmitype/StillImage" />
        <dc:title />
      </cc:Work>
    </rdf:RDF>
  </metadata>
  <g
     inkscape:label="Layer 1"
     inkscape:groupmode="layer"
     id="layer1">
    <rect
       style="fill:#ffffff;fill-rule:evenodd;stroke-width:0.16817"
       id="rect36"
       width="150"
       height="150"
       x="30"
       y="73.5"
       inkscape:export-xdpi="246.38002"
       inkscape:export-ydpi="246.38002" />
    <g
       id="g2093"
       transform="translate(407.49187,205.5503)">
      <path
         d="m -315.91298,-72.61791 3.16181,-3.776839 c 2.02036,1.610078 4.27461,2.459566 6.64633,2.459566 1.52224,0 2.34209,-0.52705 2.34209,-1.405466 v -0.05856 c 0,-0.849137 -0.67345,-1.317625 -3.45475,-1.961445 -4.36245,-0.995539 -7.72936,-2.225322 -7.72936,-6.44137 v -0.05856 c 0,-3.80612 3.01554,-6.558492 7.93433,-6.558492 3.48403,0 6.20712,0.936978 8.43209,2.723092 l -2.83986,4.011083 c -1.87396,-1.317625 -3.92324,-2.020358 -5.73864,-2.020358 -1.37618,0 -2.04928,0.585611 -2.04928,1.317625 v 0.05856 c 0,0.936978 0.70238,1.346906 3.54259,1.990725 4.71347,1.025173 7.64152,2.547409 7.64152,6.382809 v 0.05856 c 0,4.186767 -3.30835,6.675262 -8.28569,6.675262 -3.63079,0 -7.08554,-1.141589 -9.60318,-3.396192"
         style="fill:#231f20;fill-opacity:1;fill-rule:nonzero;stroke:none;stroke-width:0.0352778"
         id="path609" />
      <path
         d="m -284.98332,-77.653461 -2.28354,-5.826478 -2.31281,5.826478 z m -8.49066,-14.609939 c 0.64417,-2.898423 1.66899,-4.362803 3.68935,-4.362803 1.75648,0 3.86468,1.142294 4.83059,1.142294 0.81985,0 1.14194,-0.439561 1.52258,-1.347258 l 2.66454,0.732014 c -0.61525,2.898422 -1.669,4.333522 -3.65972,4.333522 -1.75683,0 -3.89396,-1.141942 -4.83094,-1.141942 -0.81986,0 -1.17122,0.438856 -1.55187,1.376187 z m 3.51367,2.049286 h 5.47511 l 8.7249,20.641382 h -6.09001 l -1.4933,-3.659717 h -7.90505 l -1.46403,3.659717 h -5.97252 l 8.7249,-20.641382"
         style="fill:#231f20;fill-opacity:1;fill-rule:nonzero;stroke:none;stroke-width:0.0352778"
         id="path611" />
      <path
         d="m -261.43893,-79.761661 v -0.05856 c 0,-2.957336 -2.13713,-5.533672 -5.27015,-5.533672 -3.10339,0 -5.18231,2.517775 -5.18231,5.475111 v 0.05856 c 0,2.957337 2.13748,5.533673 5.24087,5.533673 3.13302,0 5.21159,-2.518128 5.21159,-5.475112 z m -16.27858,0 v -0.05856 c 0,-5.885039 4.74309,-10.657417 11.06699,-10.657417 6.32425,0 11.00878,4.713817 11.00878,10.598856 v 0.05856 c 0,5.885039 -4.74309,10.657065 -11.06734,10.657065 -6.32425,0 -11.00843,-4.713464 -11.00843,-10.598504"
         style="fill:#231f20;fill-opacity:1;fill-rule:nonzero;stroke:none;stroke-width:0.0352778"
         id="path613" />
      <path
         d="m -340.96835,-56.59827 c 2.02022,0 3.24982,-1.053748 3.24982,-2.664178 v -0.05856 c 0,-1.756481 -1.2296,-2.693459 -3.27917,-2.693459 h -2.66414 v 5.416198 z m -8.37364,-10.188929 h 8.7836 c 5.18213,0 8.51987,2.664531 8.51987,7.202665 v 0.05856 c 0,4.831292 -3.71821,7.377995 -8.81267,7.377995 h -2.81065 v 6.001456 h -5.68015 V -66.7872"
         style="fill:#231f20;fill-opacity:1;fill-rule:nonzero;stroke:none;stroke-width:0.0352778"
         id="path615" />
      <path
         d="m -321.8129,-54.24242 -2.28385,-5.826478 -2.31302,5.826478 z m -4.97735,-12.560654 h 5.47494 l 8.72501,20.641382 h -6.09008 l -1.49309,-3.659717 h -7.90512 l -1.46403,3.659717 h -5.97267 l 8.72504,-20.641382"
         style="fill:#231f20;fill-opacity:1;fill-rule:nonzero;stroke:none;stroke-width:0.0352778"
         id="path617" />
      <path
         d="m -313.84831,-55.280292 v -11.506907 h 5.76756 v 11.389784 c 0,2.956631 1.49331,4.362451 3.77684,4.362451 2.28389,0 3.7772,-1.347259 3.7772,-4.216048 v -11.536187 h 5.76791 v 11.360504 c 0,6.616347 -3.77719,9.515123 -9.60331,9.515123 -5.82648,0 -9.4862,-2.957337 -9.4862,-9.36872"
         style="fill:#231f20;fill-opacity:1;fill-rule:nonzero;stroke:none;stroke-width:0.0352778"
         id="path619" />
      <path
         d="m -293.43729,-66.787199 h 5.68007 v 15.648165 h 9.92505 v 4.977342 h -15.60512 v -20.625507"
         style="fill:#231f20;fill-opacity:1;fill-rule:nonzero;stroke:none;stroke-width:0.0352778"
         id="path621" />
      <path
         d="m -261.43893,-56.481148 v -0.05856 c 0,-2.956984 -2.13713,-5.53332 -5.27015,-5.53332 -3.10339,0 -5.18231,2.517775 -5.18231,5.474759 v 0.05856 c 0,2.957336 2.13748,5.533672 5.24122,5.533672 3.13267,0 5.21124,-2.517775 5.21124,-5.475111 z m -16.27858,0 v -0.05856 c 0,-5.884687 4.74309,-10.657065 11.06734,-10.657065 6.3239,0 11.00843,4.713817 11.00843,10.598504 v 0.05856 c 0,5.885039 -4.74309,10.657417 -11.06734,10.657417 -6.3239,0 -11.00843,-4.713817 -11.00843,-10.598856"
         style="fill:#231f20;fill-opacity:1;fill-rule:nonzero;stroke:none;stroke-width:0.0352778"
         id="path623" />
      <g
         id="g625"
         transform="matrix(0.03527778,0,0,-0.03527778,-349.34199,0.53938608)">
        <g
           id="g627"
           clip-path="url(#clipPath631)">
          <path
             d="M 965.691,2539.5 C 885.758,2452.77 751.434,2437.34 619.188,2431.49 548.813,2427.63 478.789,2426.3 408.359,2420.61 276.156,2409.93 140.973,2392.29 60.9258,2305.51 44.4531,2287.66 30.3555,2266.76 19.1133,2242.16 4.16406,2209.48 0.128906,2176.57 0.128906,2143.57 v -53.44 c -0.007812,32.99 4.058594,65.91 18.992194,98.58 11.2422,24.6 25.3594,45.51 41.8047,63.34 80.0582,86.79 215.2262,104.42 347.4372,115.1 70.446,5.69 140.43,7.03 210.825,10.89 132.007,5.84 266.574,21.32 346.5,108.03 15.41,16.72 28.652,36.25 39.502,58.85 v 53.41 c -10.87,-22.6 -24.1,-42.12 -39.499,-58.83"
             style="fill:url(#linearGradient651);fill-opacity:1;fill-rule:nonzero;stroke:none"
             id="path653" />
        </g>
      </g>
      <g
         id="g655"
         transform="matrix(0.03527778,0,0,-0.03527778,-349.34199,0.53938608)">
        <g
           id="g657"
           clip-path="url(#clipPath661)">
          <path
             d="m 965.703,2436.84 c -79.933,-86.72 -214.035,-98.66 -346.515,-104.52 -70.43,-3.86 -140.34,-8.74 -210.817,-14.43 C 276.145,2307.21 141,2289.57 60.9453,2202.78 44.4648,2184.93 30.375,2164.02 19.1289,2139.44 4.19141,2106.76 0.121094,2073.85 0.128906,2040.85 v -53.45 c -0.027343,32.99 4.062504,65.91 19.011694,98.59 11.2422,24.59 25.3399,45.49 41.8086,63.33 80.0628,86.8 215.2108,104.43 347.4218,115.11 70.488,5.7 140.383,10.59 210.817,14.46 132.007,5.84 266.601,17.82 346.531,104.53 15.379,16.7 28.621,36.22 39.471,58.81 v 53.42 c -10.85,-22.58 -24.092,-42.1 -39.487,-58.81"
             style="fill:url(#linearGradient681);fill-opacity:1;fill-rule:nonzero;stroke:none"
             id="path683" />
        </g>
      </g>
      <g
         id="g685"
         transform="matrix(0.03527778,0,0,-0.03527778,-349.34199,0.53938608)">
        <g
           id="g687"
           clip-path="url(#clipPath691)">
          <path
             d="m 965.711,2334.09 c -79.914,-86.73 -213.563,-102.25 -346.523,-108.14 -70.45,-3.87 -140.301,-5.2 -210.809,-10.89 C 276.18,2204.38 141.016,2186.75 60.9453,2099.95 44.4922,2082.12 30.3789,2061.21 19.1328,2036.61 4.20703,2003.94 0.121094,1971.02 0.128906,1938.02 v -53.45 c 0.015625,33.01 4.082034,65.92 19.011694,98.59 11.2578,24.6 25.3555,45.5 41.8203,63.35 80.0591,86.78 215.2151,104.42 347.4181,115.1 70.496,5.69 140.359,7.02 210.809,10.88 132.718,5.88 266.597,21.44 346.542,108.18 15.383,16.7 28.606,36.21 39.46,58.77 v 53.43 c -10.854,-22.59 -24.069,-42.08 -39.479,-58.78"
             style="fill:url(#linearGradient711);fill-opacity:1;fill-rule:nonzero;stroke:none"
             id="path713" />
        </g>
      </g>
      <g
         id="g715"
         transform="matrix(0.03527778,0,0,-0.03527778,-349.34199,0.53938608)">
        <g
           id="g717"
           clip-path="url(#clipPath721)">
          <path
             d="m 965.746,2128.67 c -79.937,-86.73 -213.84,-102.4 -346.558,-108.27 -70.493,-3.88 -140.254,-5.2 -210.797,-10.89 C 276.184,1998.83 141.035,1981.19 60.9844,1894.41 44.5352,1876.57 30.4141,1855.66 19.1836,1831.07 4.24219,1798.4 0.121094,1765.48 0.128906,1732.48 v -53.45 c -0.007812,33 4.121094,65.91 19.054694,98.59 11.2344,24.59 25.3555,45.49 41.8125,63.34 80.0589,86.78 215.1879,104.42 347.4019,115.1 70.575,5.71 140.262,7.02 210.79,10.88 132.246,5.86 266.636,21.59 346.562,108.32 15.391,16.68 28.594,36.17 39.44,58.7 v 53.44 c -10.85,-22.55 -24.057,-42.04 -39.444,-58.73"
             style="fill:url(#linearGradient741);fill-opacity:1;fill-rule:nonzero;stroke:none"
             id="path743" />
        </g>
      </g>
      <g
         id="g745"
         transform="matrix(0.03527778,0,0,-0.03527778,-349.34199,0.53938608)">
        <g
           id="g747"
           clip-path="url(#clipPath751)">
          <path
             d="M 965.77,2026.02 C 885.836,1939.3 751.668,1923.53 619.188,1917.68 548.66,1913.81 478.977,1912.49 408.398,1906.79 276.203,1896.11 141.059,1878.48 61.0078,1791.7 44.543,1773.85 30.4414,1752.94 19.207,1728.35 4.26172,1695.67 0.121094,1662.75 0.128906,1629.75 v -53.45 c 0,33.01 4.136724,65.91 19.062494,98.58 11.2617,24.61 25.3594,45.5 41.8125,63.35 80.0621,86.79 215.1911,104.43 347.4061,115.11 70.617,5.71 140.207,7.01 210.778,10.89 132.718,5.87 266.66,21.65 346.582,108.37 15.382,16.68 28.582,36.15 39.42,58.68 v 53.43 c -10.85,-22.54 -24.069,-42.02 -39.42,-58.69"
             style="fill:url(#linearGradient771);fill-opacity:1;fill-rule:nonzero;stroke:none"
             id="path773" />
        </g>
      </g>
      <g
         id="g775"
         transform="matrix(0.03527778,0,0,-0.03527778,-349.34199,0.53938608)">
        <g
           id="g777"
           clip-path="url(#clipPath781)">
          <path
             d="M 965.672,2588.73 C 885.75,2502.02 751.434,2481.74 619.188,2475.89 611.344,2475.46 470.918,2470.05 408.359,2465 276.141,2454.32 140.957,2436.69 60.9063,2349.9 44.4648,2332.06 30.3555,2311.16 19.1094,2286.56 4.17969,2253.89 0.125,2220.96 0.128906,2187.97 v -44.4 c 0,33 4.035154,65.91 18.984394,98.59 11.2422,24.6 25.3398,45.5 41.8125,63.35 80.0472,86.78 215.2302,104.42 347.4332,115.1 70.43,5.69 140.454,7.02 210.829,10.88 133.671,5.92 266.57,21.28 346.503,108.01 15.399,16.71 28.629,36.23 39.499,58.83 v 49.27 c -10.854,-22.6 -24.096,-42.14 -39.518,-58.87"
             style="fill:url(#linearGradient801);fill-opacity:1;fill-rule:nonzero;stroke:none"
             id="path803" />
        </g>
      </g>
      <g
         id="g805"
         transform="matrix(0.03527778,0,0,-0.03527778,-349.34199,0.53938608)">
        <g
           id="g807"
           clip-path="url(#clipPath811)">
          <path
             d="m 965.688,2486.07 c -79.926,-86.71 -214.02,-102.18 -346.5,-108.03 -70.395,-3.86 -140.379,-5.2 -210.825,-10.89 C 276.152,2356.47 140.984,2338.84 60.9258,2252.05 44.4805,2234.22 30.3633,2213.31 19.1211,2188.71 4.1875,2156.04 0.121094,2123.12 0.128906,2090.13 v -49.28 c -0.007812,33 4.062504,65.91 18.999994,98.59 11.2461,24.58 25.3359,45.49 41.8164,63.34 80.0547,86.79 215.1997,104.43 347.4257,115.11 70.477,5.69 140.387,10.57 210.817,14.43 132.007,5.84 266.582,17.8 346.515,104.52 15.395,16.71 28.637,36.23 39.487,58.81 v 49.27 c -10.85,-22.6 -24.092,-42.13 -39.502,-58.85"
             style="fill:url(#linearGradient831);fill-opacity:1;fill-rule:nonzero;stroke:none"
             id="path833" />
        </g>
      </g>
      <g
         id="g835"
         transform="matrix(0.03527778,0,0,-0.03527778,-349.34199,0.53938608)">
        <g
           id="g837"
           clip-path="url(#clipPath841)">
          <path
             d="m 965.719,2383.42 c -79.93,-86.71 -214.758,-98.71 -346.531,-104.53 -70.434,-3.87 -140.329,-8.76 -210.817,-14.46 C 276.16,2253.75 141.012,2236.12 60.9492,2149.32 44.4805,2131.48 30.3828,2110.58 19.1406,2085.99 4.19141,2053.31 0.101563,2020.39 0.128906,1987.4 v -49.38 c -0.007812,33 4.078124,65.92 19.003894,98.59 11.2461,24.6 25.3594,45.51 41.8125,63.34 80.0707,86.8 215.2347,104.43 347.4337,115.11 70.508,5.69 140.359,7.02 210.809,10.89 132.007,5.84 266.609,21.41 346.523,108.14 15.41,16.7 28.625,36.19 39.479,58.78 v 49.36 c -10.85,-22.59 -24.092,-42.11 -39.471,-58.81"
             style="fill:url(#linearGradient861);fill-opacity:1;fill-rule:nonzero;stroke:none"
             id="path863" />
        </g>
      </g>
      <g
         id="g865"
         transform="matrix(0.03527778,0,0,-0.03527778,-349.34199,0.53938608)">
        <g
           id="g867"
           clip-path="url(#clipPath871)">
          <path
             d="M 965.75,2178.03 C 885.805,2091.29 751.906,2075.65 619.188,2069.78 548.672,2065.91 478.965,2064.6 408.398,2058.9 276.18,2048.2 141.023,2030.57 60.9844,1943.78 44.5,1925.94 30.418,1905.04 19.168,1880.44 4.23047,1847.76 0.144531,1814.85 0.128906,1781.85 v -49.37 c -0.007812,33 4.113284,65.92 19.054694,98.59 11.2305,24.59 25.3516,45.5 41.8008,63.34 80.0506,86.78 215.1996,104.42 347.4066,115.1 70.543,5.69 140.304,7.01 210.797,10.89 132.007,5.84 266.621,21.54 346.558,108.27 15.387,16.69 28.594,36.18 39.444,58.73 v 49.33 c -10.85,-22.55 -24.069,-42.03 -39.44,-58.7"
             style="fill:url(#linearGradient891);fill-opacity:1;fill-rule:nonzero;stroke:none"
             id="path893" />
        </g>
      </g>
      <g
         id="g895"
         transform="matrix(0.03527778,0,0,-0.03527778,-349.34199,0.53938608)">
        <g
           id="g897"
           clip-path="url(#clipPath901)">
          <path
             d="M 965.75,2075.26 C 885.824,1988.53 751.434,1972.8 619.188,1966.94 548.66,1963.08 478.973,1961.77 408.398,1956.06 276.184,1945.38 141.055,1927.74 60.9961,1840.96 44.5391,1823.11 30.418,1802.21 19.1836,1777.62 4.25,1744.94 0.121094,1712.03 0.128906,1679.03 v -49.28 c -0.007812,33 4.132814,65.92 19.078094,98.6 11.2344,24.59 25.336,45.5 41.8008,63.35 80.0512,86.78 215.1952,104.41 347.3902,115.09 70.579,5.7 140.262,7.02 210.79,10.89 132.48,5.85 266.648,21.62 346.582,108.34 15.351,16.67 28.57,36.15 39.42,58.69 v 49.25 c -10.846,-22.53 -24.049,-42.02 -39.44,-58.7"
             style="fill:url(#linearGradient921);fill-opacity:1;fill-rule:nonzero;stroke:none"
             id="path923" />
        </g>
      </g>
      <g
         id="g925"
         transform="matrix(0.03527778,0,0,-0.03527778,-349.34199,0.53938608)">
        <g
           id="g927"
           clip-path="url(#clipPath931)">
          <path
             d="M 965.77,1972.6 C 885.848,1885.88 751.434,1870.08 619.188,1864.23 548.617,1860.35 479.027,1859.05 408.41,1853.34 276.195,1842.66 141.066,1825.02 61.0039,1738.23 44.5508,1720.38 30.4531,1699.49 19.1914,1674.88 4.26563,1642.21 0.128906,1609.31 0.128906,1576.3 v -49.27 c -0.011718,32.99 4.152344,65.91 19.081994,98.58 11.2422,24.59 25.3438,45.5 41.8125,63.35 80.0506,86.78 215.1796,104.42 347.3866,115.09 70.102,5.67 139.949,7.07 209.996,10.85 h -0.004 c 132.559,5.87 267.461,26.61 347.387,113.34 15.348,16.66 28.555,36.12 39.401,58.65 v 44.39 c -10.838,-22.53 -24.038,-42 -39.42,-58.68"
             style="fill:url(#linearGradient951);fill-opacity:1;fill-rule:nonzero;stroke:none"
             id="path953" />
        </g>
      </g>
      <g
         id="g955"
         transform="matrix(0.03527778,0,0,-0.03527778,-349.34199,0.53938608)">
        <g
           id="g957"
           clip-path="url(#clipPath961)">
          <path
             d="m 965.734,2231.43 c -79.929,-86.72 -213.113,-102.3 -346.546,-108.21 -70.504,-3.86 -140.243,-5.18 -210.797,-10.88 C 276.172,2101.66 141.039,2084.03 60.9648,1997.23 44.5117,1979.38 30.4102,1958.48 19.1641,1933.89 4.21875,1901.21 0.125,1868.3 0.128906,1835.3 v -53.45 c 0.015625,33 4.101564,65.91 19.039094,98.59 11.25,24.6 25.332,45.5 41.8164,63.34 80.0386,86.79 215.1956,104.42 347.4136,115.12 70.567,5.7 140.274,7.01 210.79,10.88 132.246,5.85 266.617,21.51 346.562,108.25 15.371,16.67 28.59,36.15 39.44,58.7 v 53.43 c -10.862,-22.55 -24.073,-42.05 -39.456,-58.73"
             style="fill:url(#linearGradient981);fill-opacity:1;fill-rule:nonzero;stroke:none"
             id="path983" />
        </g>
      </g>
      <g
         id="g985"
         transform="matrix(0.03527778,0,0,-0.03527778,-349.34199,0.53938608)">
        <g
           id="g987"
           clip-path="url(#clipPath991)">
          <path
             d="m 965.73,2280.67 c -79.945,-86.74 -214.535,-102.33 -346.542,-108.18 -67.637,-3.71 -134.731,-5.08 -202.372,-10.22 -2.808,-0.22 -5.625,-0.43 -8.437,-0.66 C 276.176,2150.93 141.02,2133.29 60.9609,2046.51 44.4961,2028.66 30.3984,2007.76 19.1406,1983.16 4.21094,1950.49 0.144531,1917.58 0.128906,1884.57 v -49.27 c -0.003906,33 4.089844,65.91 19.035194,98.59 11.2461,24.59 25.3476,45.49 41.8007,63.34 80.0742,86.8 215.2072,104.43 347.4262,115.11 70.554,5.7 140.293,7.02 210.797,10.88 132.718,5.88 266.617,21.49 346.546,108.21 15.383,16.68 28.594,36.18 39.456,58.73 v 49.28 c -10.854,-22.56 -24.077,-42.07 -39.46,-58.77"
             style="fill:url(#linearGradient1011);fill-opacity:1;fill-rule:nonzero;stroke:none"
             id="path1013" />
        </g>
      </g>
      <path
         d="m -338.35035,-86.068975 c -3.46604,0.492831 -6.71312,1.347611 -8.843,3.656895 -0.58002,0.629003 -1.07777,1.366661 -1.4745,2.234494 -0.52655,1.152878 -0.66973,2.314223 -0.66959,3.478389 v 1.565981 1.885597 1.738489 1.884892 1.74237 c -1.4e-4,-1.164167 0.14386,-2.207331 0.67041,-3.360209 0.39674,-0.86748 0.88567,-1.613958 1.47505,-2.234142 2.21932,-2.334683 5.24206,-3.254022 8.84163,-3.774722 v -8.818034"
         style="fill:#ed1c24;fill-opacity:1;fill-rule:nonzero;stroke:none;stroke-width:0.0352778"
         id="path1015" />
      <path
         d="m -341.58158,-81.523786 c 0.0903,1.865842 -1.27646,3.995914 -3.0522,5.067653 -1.77574,1.078089 -3.28883,0.221898 -3.37895,-1.684161 -0.0903,-1.866194 1.27661,-3.996267 3.05235,-5.068006 1.77574,-1.078089 3.2887,-0.221897 3.3788,1.684514"
         style="fill:#ffffff;fill-opacity:1;fill-rule:nonzero;stroke:none;stroke-width:0.0352778"
         id="path1017" />
      <path
         d="m -345.61923,-81.778139 c 0.003,-0.0018 0.007,-0.0039 0.0103,-0.006 0.01,0.0011 0.0147,0.01058 0.0251,0.01094 -5.3e-4,0.02858 -0.002,0.05644 -0.0136,0.08008 0.0171,-0.0085 0.0402,-0.02046 0.0561,-0.0099 0.002,0.0099 -0.004,0.01658 -0.006,0.02505 0.0144,-0.0039 0.0132,0.01834 0.0258,0.01764 -0.007,0.02575 -0.0142,0.05186 -0.0357,0.07126 0.01,0.04586 -0.0422,0.161925 0.0216,0.154517 -0.002,0.01764 0.007,0.03916 -8.1e-4,0.05468 0.0383,3.52e-4 0.0499,0.04515 0.1064,0.01482 -0.003,0.01517 0.008,0.0074 0.0113,0.01164 0.008,-0.0127 0.0139,-0.02646 0.0338,-0.03387 0.002,-0.01235 -0.007,-0.0071 -0.005,-0.01905 0.0142,-0.0092 0.0157,-0.02364 0.0267,-0.03387 0.0125,-0.0056 0.0209,-0.0042 0.0313,-0.0071 0.007,-0.0035 10e-4,-0.01341 0.003,-0.01976 0.019,-0.0088 0.0302,-0.03457 0.0547,-0.03845 0.0113,-0.03281 0.0297,-0.05786 0.0562,-0.0762 0.0378,0.01341 0.0952,-0.06032 0.13519,-0.05292 0.0178,-0.02822 -0.0106,-0.0321 -0.023,-0.04127 0.003,-0.01658 0.0191,-0.02858 0.0187,-0.04692 0.01,-0.0127 0.0259,-0.0099 0.0316,-0.0039 0.0398,-0.02857 0.065,-0.05327 0.0949,-0.08431 0.008,-0.0028 8.5e-4,0.0187 0.008,0.01729 0.0119,-7.05e-4 0.0119,-0.0092 0.024,-0.01729 0.004,0.0018 0.004,0.01023 0.004,0.01905 0.008,-0.0032 0.007,-0.01094 0.0171,-0.01376 0.003,0.02364 0.0375,-0.0025 0.046,0.0025 0.012,-0.02046 0.0312,-0.03739 0.043,-0.05786 0.0343,-0.0018 0.0708,-0.03457 0.10089,-0.03316 0.0411,-0.04727 0.0568,-0.104775 0.0663,-0.165453 0.0325,-0.06914 0.0759,-0.147461 0.0885,-0.214489 0.0242,-7.06e-4 0.0515,-0.0056 0.0543,0.02999 2.5e-4,0.0035 0.006,0.0011 0.007,-0.0039 0.008,0.08714 0.0397,0.136173 0.066,0.193675 0.008,-0.0078 0.0145,-0.01693 0.027,-0.02293 0.0106,0.0099 0.0186,0.02399 0.0265,0.0388 0.0156,-0.01658 0.0258,-0.0032 0.0419,-0.0095 0.009,0.04445 0.006,0.09984 -0.0178,0.140406 0.006,0.01164 0.008,0.03069 0.0127,0.04339 0.02,-0.01341 0.0234,-0.0127 0.0375,-0.02893 0.035,0.03669 0.0907,0.03351 0.16178,-0.0099 0.008,0.0092 9.5e-4,0.02293 -0.005,0.03563 0.0124,0.0049 0.0354,-0.0085 0.049,-0.0063 0.0405,-0.05362 0.09,-0.05186 0.13092,-0.07126 0.007,-0.0049 0.002,0.01164 0.004,0.01552 0.006,-0.0049 0.002,-0.01517 0.0131,-0.01834 1.4e-4,0.0039 2.8e-4,0.0071 4.2e-4,0.01058 0.0153,-0.0046 0.0189,-0.02223 0.0273,-0.01905 0.002,0.0078 2.5e-4,0.01376 -0.003,0.0194 0.01,-0.0085 0.0138,-0.0194 0.0272,-0.02611 -0.002,0.01164 0.005,0.006 0.004,0.01552 0.0106,-0.0067 0.0106,-0.01799 0.0198,-0.0254 0.006,0 0.004,0.0127 0.008,0.01658 0.008,-0.0049 0.0252,-0.01658 0.0248,-0.0028 0.008,-0.0032 0.003,-0.01235 0.01,-0.01623 0.009,-0.0063 0.009,0.0025 0.0109,0.0081 0.006,-0.0064 0.0171,-0.01058 0.0202,-0.0187 0.003,0.01623 0.0134,-0.0028 0.0149,0.01693 0.008,0 0.0199,-0.01446 0.0278,-0.0085 -0.002,0.01799 0.003,0.01834 -0.002,0.03351 0.0178,-0.02293 0.0183,-0.05362 0.0496,-0.07126 0.008,0.0032 0.008,0.0095 9.6e-4,0.02152 0.0147,-0.02152 0.0132,0.01094 0.0283,0.0021 0.003,0.02752 0.0336,0.02963 0.0276,0.06032 0.012,0.0025 0.0171,0.01623 0.0126,0.03634 0.0124,0.0063 0.0411,-0.05256 0.0481,-0.02681 0.0145,-0.01658 0.0311,-0.05045 0.0429,-0.05645 0.01,-0.006 0.0103,0.0035 0.0112,0.012 0.0293,-0.03775 0.0967,-0.01729 0.12583,-0.02611 0.0258,-0.0081 0.0625,-0.04198 0.0861,-0.04374 0.0336,0.02681 0.11081,-0.04868 0.15808,-0.07867 0.0767,-0.04833 0.11906,-0.01129 0.18933,-0.02152 0.0134,0.01658 0.0328,0.02258 0.0641,0.0099 0.0273,0.02011 0.0494,0.04904 0.0935,0.04163 0.007,0.03704 0.0627,-0.0053 0.0687,0.03387 0.0154,-0.0074 0.0167,-0.0049 0.0307,-0.01587 0.008,0.0049 0.0193,0.0039 0.0284,0.0071 0.0639,-0.03034 0.0934,-0.05997 0.14799,-0.06738 0.0521,0.03422 0.0541,0.136172 0.094,0.195792 0.0161,0.138642 -0.0171,0.307622 -0.10322,0.417336 -0.0117,0.03739 -0.031,0.07161 -0.0547,0.103364 0.002,0.01588 -0.009,0.0254 -0.0121,0.03916 -0.13423,0.121356 -0.12238,0.316442 -0.23523,0.450145 -0.005,7.05e-4 -0.0175,0.0134 -0.0174,0.0056 -0.0147,0.02046 -0.0318,0.03986 -0.0428,0.06209 0.001,0.0067 0.007,0.0056 0.0111,0.0088 -0.003,0.09666 -0.023,0.231069 0.0184,0.312561 -0.0171,0.08643 -0.0435,0.183797 -0.0229,0.255058 -0.007,0.01623 -0.009,0.03457 -0.0295,0.0441 -0.0573,0.07479 -0.016,0.17145 -0.0409,0.25012 -0.0508,0.05856 -0.0445,0.143933 -0.0885,0.206375 -0.005,0.0025 -0.009,0.0049 -0.0138,0.0074 -0.0188,0.0314 -0.0178,0.07232 -0.0375,0.103011 0.01,0.01376 0.0114,0.03986 0.0139,0.06526 -0.0415,0.0448 -0.0944,0.08467 -0.12033,0.137231 0.01,0.01693 -9.5e-4,0.03916 0.003,0.05292 -0.0924,0.0321 -0.16923,0.100542 -0.2467,0.153459 -0.002,-0.0127 0.008,-0.01976 0.009,-0.03034 -0.0129,0.0063 -0.0121,0.01976 -0.0234,0.02716 -10e-4,0.01199 0.011,0.0021 0.008,0.01764 -0.0189,0.01411 -0.0233,0.01411 -0.0375,0.02787 -0.008,-0.0095 0.001,-0.01341 0.006,-0.02505 -0.0146,-0.0056 -0.0265,0.01623 -0.0417,0.01552 2.5e-4,0.0049 3.9e-4,0.0099 6.7e-4,0.01446 0.009,-0.0074 0.0181,-0.0014 0.0249,0.0042 -0.01,0.03175 -0.0426,0.03704 -0.0612,0.0448 -0.0193,0.02187 -0.0278,0.04798 -0.0568,0.06491 1.4e-4,0.02046 0.0163,-0.0092 0.0244,-0.0032 -8.4e-4,0.01729 0.007,0.01693 0.002,0.03175 -0.0375,0.0194 -0.0632,-0.0039 -0.10047,0.0381 -0.002,0.01658 -0.0113,0.02963 -0.0192,0.04374 -0.0109,0.0067 -0.0118,-0.0032 -0.0245,0.0064 -0.0217,0.02011 -0.0353,0.04445 -0.0567,0.06491 -0.0106,0.03422 -0.0449,0.05856 -0.0558,0.09278 -0.0594,0.03281 -0.0373,0.100895 -0.0956,0.134409 -0.005,0.0088 -0.002,0.02223 -0.002,0.03387 -0.026,0.02187 -0.0333,0.05221 -0.0383,0.08361 0.001,0.0099 0.0132,0.0025 0.0179,0.0074 -0.005,0.02716 -0.0168,0.05045 -0.0209,0.07726 -7e-4,0.01023 0.008,0.0053 0.014,0.0028 -0.015,0.03034 0.007,0.02117 -0.001,0.04445 0.003,0.0032 0.009,-0.0067 0.0174,-0.006 -0.005,0.01199 -0.004,0.02752 -0.008,0.04092 10e-4,0.0067 0.0103,-0.01129 0.0135,-0.01517 0.0131,0.04304 -0.032,0.116417 -0.0269,0.178153 -0.0714,0.08537 -0.13628,0.190853 -0.16605,0.287514 -0.007,0.02399 -0.008,0.04904 -0.0176,0.07549 -0.0123,0.03316 -0.0442,0.09984 -0.0608,0.129117 -0.0424,0.07549 -0.11313,0.139347 -0.14139,0.212372 -0.0153,0.006 -0.0138,0.0194 -0.0237,0.02822 -0.0183,0.03881 -0.0208,0.09843 -0.0491,0.151342 -0.0153,0.02893 -0.0615,0.100542 -0.0758,0.109361 -0.0506,0.03104 -0.0135,-0.07126 -0.0616,-0.03281 0.0168,-0.03105 0.0354,-0.06138 0.059,-0.0889 0.005,-0.01658 -0.0153,0.0081 -0.0107,-0.0081 0.012,-0.01199 0.0127,-0.0074 0.0238,-0.01764 -0.0175,-0.0035 -0.0395,7.06e-4 -0.0566,-0.0032 -0.008,-0.05715 -0.067,-0.02681 -0.10403,-0.03387 0.006,-0.01587 -0.005,-0.01094 -0.008,-0.02046 -0.0601,0.02716 -0.0996,0.02046 -0.1276,-0.0056 -0.0136,0.01905 -0.0314,0.05256 -0.0575,0.05503 -2.8e-4,-0.0092 -0.002,-0.0194 0.002,-0.02681 -0.0388,-0.01482 -0.0745,-0.04798 -0.12827,-0.02681 -0.009,0.01023 -0.009,0.02399 -0.016,0.03493 -0.0215,0.01411 -0.0273,0.0194 -0.0481,0.02787 0.003,-0.01341 -0.006,-0.0056 -0.008,-0.0099 0.0109,-0.02187 0.0369,-0.03739 0.0323,-0.06597 0.0376,-0.04269 0.0678,-0.0889 0.0813,-0.141464 0.0456,-0.04974 0.0557,-0.115005 0.10156,-0.164042 -0.001,-0.0042 -0.005,-0.0039 -0.004,-0.01199 0.0371,-0.03598 0.0521,-0.07902 0.0966,-0.118181 0.003,-0.01341 0.0101,-0.0254 0.0158,-0.0381 0.0212,-0.01058 0.0429,-0.04904 0.0643,-0.05539 0.0146,-0.03704 0.0539,-0.05609 0.0659,-0.09984 -0.009,-0.0254 -0.01,-0.05115 0.003,-0.0889 -0.0307,-0.0092 -0.019,-0.09207 -0.0798,-0.04022 -0.009,0.0056 -0.009,0.01658 -0.0164,0.02364 -0.0107,0.0046 -0.0139,-0.0046 -0.0247,0 -4.2e-4,-0.02611 0.013,-0.05891 0.0135,-0.08396 8.1e-4,-0.04586 0.0294,-0.106187 0.0149,-0.131939 -0.0285,-0.05045 -0.0893,0.0635 -0.13808,0.06597 -0.012,-0.02611 -0.01,-0.08925 -0.0369,-0.108655 0.003,-0.01482 0.002,-0.0314 0.005,-0.04621 0,-0.01023 -0.01,-0.0035 -0.0143,-0.0064 0.005,-0.05962 -0.0816,0.03387 -0.0852,-0.01199 -0.0368,0.07937 -0.14538,0.08678 -0.19251,0.111478 0.009,-0.02787 -0.002,-0.0381 0.0113,-0.05715 -0.0258,-7.06e-4 0.007,-0.04904 -0.006,-0.0508 0.0231,-0.06914 -0.0248,-0.05786 -0.0156,-0.103364 -0.0116,0.0032 -0.009,-0.01729 -0.0219,-0.01235 -9.5e-4,-0.02364 0.0207,-0.03739 0.0325,-0.05539 -0.007,-0.0074 -0.0216,-0.0014 -0.0284,-0.0088 0.0113,-0.04586 0.0257,-0.09031 0.0429,-0.133702 -0.007,-0.01693 0.005,-0.08149 0.0229,-0.111125 -0.0218,-0.01094 -0.0303,-0.04516 -0.0458,-0.06773 -0.0108,0.0039 -0.01,0.01199 -0.0204,0.01552 -0.0418,0.0032 -0.0871,-0.04374 -0.0473,-0.103011 -0.005,-0.0127 -0.002,-0.01517 0.002,-0.03034 -0.0635,0.03598 -0.15515,0.08714 -0.22708,0.123825 -0.008,-0.03316 -0.001,-0.07197 -0.0117,-0.0949 -0.009,-0.02011 -0.0358,-0.01199 -0.0405,-0.03457 0.0115,-0.0067 0.023,-0.01305 0.0346,-0.01976 0.007,-0.01411 -5.7e-4,-0.03457 8.1e-4,-0.05151 -0.0302,-0.0092 -0.0273,-0.05856 -0.0326,-0.09313 -0.029,0.01411 -0.0554,-0.0071 -0.0742,-0.0011 -0.0266,0.0081 -0.0564,0.04621 -0.0925,0.05962 -0.007,-0.02117 -0.0375,-0.0028 -0.0404,-0.03104 -0.0502,0.02646 -0.0965,0.04022 -0.1163,0.0042 -0.0336,0.04022 -0.0517,0.0074 -0.0805,0.01623 -0.0259,0.03845 -0.0533,0.03563 -0.0857,0.04762 -1.4e-4,-0.01129 -0.0114,-0.0039 -0.008,-0.02046 -0.015,0.0021 -0.0346,0.01164 -0.0357,-0.0095 -0.0125,0.0099 -0.0149,0.0021 -0.0276,0.01199 10e-4,-0.01729 -0.009,-0.01623 -0.009,-0.0314 -0.005,0.01094 -0.007,0.01058 -0.017,0.0127 -0.008,-0.0388 -0.0411,-0.0441 -0.0193,-0.101247 -0.0358,-0.02575 0.0149,-0.114653 -0.0142,-0.151694 -0.0135,0.0056 -0.007,0.0194 -0.0164,0.02716 -0.0489,0.01058 -0.0799,0.04586 -0.12664,0.07655 -0.0222,0.03034 -0.0437,0.06032 -0.0627,0.09207 -0.0358,0.02223 -0.0536,0.05327 -0.0661,0.08643 -0.0146,0.0088 -0.0175,-0.0014 -0.0346,0.01164 -0.0256,0.04198 -0.0463,0.08608 -0.0966,0.116769 -0.007,-0.0032 -9.6e-4,-0.0088 -9.6e-4,-0.01799 -0.0531,0.02223 -0.13519,0.05151 -0.18507,0.105128 -0.0101,0.0035 -0.0193,0.0056 -0.0212,-0.0039 -0.011,0.0042 -0.007,0.01517 -0.0204,0.01799 -0.002,-0.05045 -0.005,-0.101247 -0.007,-0.152047 -0.002,-0.01023 0.008,-0.01411 0.0131,-0.02117 -0.005,-0.0039 -0.0172,-0.0085 -0.008,-0.02469 -0.0274,0.03387 -0.0496,0.0702 -0.0758,0.104422 -0.0378,0.01905 -0.0757,0.03845 -0.11342,0.05786 -0.003,-0.03704 -0.0167,-0.03281 -0.0274,-0.05539 -0.0339,0.01446 -0.0634,0.02117 -0.10335,0.0448 0.005,-0.02434 0.028,-0.03916 0.0287,-0.06526 -0.01,-0.02716 -0.0424,-0.01835 -0.0517,-0.04692 -0.0309,0.0042 -0.0263,-0.04904 -0.055,-0.04904 -0.004,-0.0099 0.005,-0.01341 0.01,-0.01905 -0.013,-0.0049 -0.0255,-0.01023 -0.0394,-0.01376 0.008,-0.01658 0.0105,-0.02117 0.002,-0.03316 0.0117,-0.0085 0.016,-0.0074 0.031,-0.0187 -0.0295,-0.03986 0.0223,-0.104422 0.0634,-0.140053 -0.021,-0.06879 0.034,-0.130175 0.0223,-0.191911 0.0249,-0.02575 0.059,-0.04621 0.0666,-0.08079 0.0318,-0.01411 0.0427,-0.05539 0.0734,-0.08008 0.0134,0.0071 0.0398,-0.0254 0.0613,-0.04269 0.0397,-0.0021 0.0506,-0.07373 0.0743,-0.06315 0.005,-0.0025 0.003,-0.0078 0.007,-0.01094 0.0125,0.0049 0.0149,-0.01199 0.0344,-0.01411 2.8e-4,0.0049 4.1e-4,0.0099 6.9e-4,0.01411 0.0107,0.0025 0.0204,-0.01552 0.031,-0.01199 0.0241,-0.122061 0.0383,-0.267053 0.0449,-0.385939 0.0233,-0.04375 -0.006,-0.07091 -0.0219,-0.08608 0.003,-0.01552 0.007,-0.01729 0.002,-0.03034 -0.023,-0.0028 -0.0453,-0.0074 -0.0608,-0.02293 -0.004,-0.03281 0.003,-0.06068 -0.001,-0.09349 0.0203,-0.01693 0.0486,-0.03775 0.071,-0.06244 0.0141,-0.0035 0.0189,0.0074 0.0384,-0.0056 -0.0119,-0.0035 -10e-4,-0.03316 -0.0159,-0.03845 -0.0189,0.0092 -0.053,0.02046 -0.0757,0.03563 -0.002,-0.02928 -0.003,-0.05891 -0.004,-0.08819 0.0441,-0.03986 0.13243,-0.06491 0.19196,-0.10795 9.7e-4,-0.006 9.7e-4,-0.02505 0.009,-0.0374 0.0175,-0.0095 0.0226,0.0014 0.0321,0.0046 0.022,-0.03775 0.0426,-0.0575 0.0729,-0.09349 0.005,0.0095 0.006,0.02611 0.009,0.03881 0.0353,-0.01341 0.0299,0.03951 0.032,0.08079 0.009,-0.0067 0.0187,-0.01199 0.0236,-0.02046 0.0252,0.006 0.0464,0.01799 0.0719,0.02293 0.0404,-0.01482 0.0555,-0.07514 0.0947,-0.08079 6.9e-4,0.0025 4.1e-4,0.0071 0.004,0.0053 0.003,0.01552 -0.004,0.02575 -0.009,0.03739 0.0225,-0.0011 0.0135,-0.05786 0.0431,-0.05644 -0.002,-0.0127 0,-0.02293 0.006,-0.03175 0.006,-0.01023 0.01,-0.0039 0.0175,-0.006 4.2e-4,-0.01729 0.0163,-0.02716 0.0262,-0.03986 1.3e-4,0.0032 2.7e-4,0.0071 4.1e-4,0.01058 0.0172,-0.01693 0.0356,-0.06809 0.0536,-0.06244 0.0124,-0.01023 0.0187,-0.02328 0.0263,-0.03598 -0.006,-0.0088 0.001,-0.0194 -0.002,-0.03563 0.0284,-0.02611 0.0449,-0.04375 0.0774,-0.07232 0.002,-0.01552 -0.006,-0.02293 -0.002,-0.03175 -0.0258,0.02752 -0.0557,0.03422 -0.0792,0.0374 -0.004,-0.01446 0.007,-0.02223 0.009,-0.03422 -0.0161,-0.02857 -0.0532,-0.04445 -0.029,-0.09278 -0.023,-0.02364 -0.0807,-0.01023 -0.0806,-0.06033 0.009,-0.01058 0.0274,-0.0088 0.0284,0.006 0.023,-0.01552 0.048,-0.0314 0.0619,-0.03422 0.001,0.03634 0.0362,0.0074 0.0521,-0.01834 0.009,0.0025 0.0113,0.01446 0.0251,0.0081 0.0114,-0.01023 -0.01,0.0042 -0.004,-0.0088 0.009,-0.0085 0.0211,-0.01587 0.0343,-0.02258 -0.002,0.02575 0.0236,0.0095 0.0296,0.03069 0.0109,-0.0092 0.0102,-0.02328 0.0267,-0.02963 -0.0101,-0.0053 -0.006,-0.01976 -0.005,-0.03704 0.0208,-0.0053 0.0298,-0.03104 0.0507,-0.04621 0.007,-0.0056 0.0485,-0.02046 0.0485,-0.02046 0.0163,-0.01411 0.0234,-0.04621 0.0438,-0.04304 9.9e-4,-0.02364 0.0249,-0.03704 0.0325,-0.05821 0.0187,-0.01129 0.0208,-7.06e-4 0.0377,-0.01799 0.006,-0.0063 0.003,-0.01693 0.006,-0.02469 0.0375,-0.02293 0.0433,-0.06773 0.0208,-0.08079 0.02,-0.01976 0.0473,-0.01517 0.0616,-0.04233"
         style="fill:#254aa5;fill-opacity:1;fill-rule:evenodd;stroke:none;stroke-width:0.0352778"
         id="path1019" />
      <path
         d="m -340.77873,-82.955711 0.67416,-0.632178 0.6744,0.383823 -0.25742,-0.775053 0.67412,-0.632884 -0.83343,0.153812 -0.25767,-0.775406 -0.25743,0.870303 -0.83357,0.153811 0.6744,0.383822 -0.25756,0.86995"
         style="fill:#fcd205;fill-opacity:1;fill-rule:nonzero;stroke:none;stroke-width:0.0352778"
         id="path1021" />
      <path
         d="m -338.96094,-79.801525 -0.91105,0.167923 -0.28166,-0.847373 -0.28141,0.951089 -0.91129,0.168275 0.73713,0.419453 -0.28152,0.951442 0.73709,-0.691445 0.73724,0.419453 -0.28166,-0.847019 0.73713,-0.691798"
         style="fill:#fcd205;fill-opacity:1;fill-rule:nonzero;stroke:none;stroke-width:0.0352778"
         id="path1023" />
      <path
         d="m -348.65683,-78.139588 0.37524,0.324908 c 0,0 -0.18218,-0.583847 -0.2311,-0.783872 -0.003,-0.01058 -0.006,-0.02364 -0.008,-0.0381 l 0.26032,-0.953206 c 0,0 -0.17942,0.287161 -0.32095,0.518584 -0.0241,-0.208492 -0.0431,-0.401109 -0.0431,-0.401109 0,0 -0.0688,0.363361 -0.12747,0.689681 -0.0971,0.173214 -0.20863,0.379941 -0.20863,0.379941 l 0.12705,0.109714 c -0.0535,0.39617 -0.16206,1.394178 -0.16206,1.394178 l 0.339,-1.240719"
         style="fill:#fcd205;fill-opacity:1;fill-rule:nonzero;stroke:none;stroke-width:0.0352778"
         id="path1025" />
      <path
         d="m -348.33561,-75.049608 c -0.0668,-0.349955 -0.11548,-0.637116 -0.11548,-0.637116 0,0 -0.0604,0.51823 -0.11479,1.00965 -0.11727,0.220486 -0.30248,0.620183 -0.30248,0.620183 0,0 0.0991,0.04057 0.22738,0.09243 -2.8e-4,0.0042 -9.6e-4,0.01023 -10e-4,0.01446 -0.0329,0.360186 -0.10418,1.442508 -0.10418,1.442508 l 0.35843,-1.355372 c 0.17142,0.06844 0.32563,0.128411 0.33679,0.128058 0.0113,-7.05e-4 -0.0806,-0.346428 -0.1706,-0.756708 l 0.31833,-1.202972 c 0,0 -0.24268,0.3556 -0.43202,0.644877"
         style="fill:#fcd205;fill-opacity:1;fill-rule:nonzero;stroke:none;stroke-width:0.0352778"
         id="path1027" />
      <path
         d="m -346.25628,-39.711855 h 1.31576 v 0.849136 c -0.33116,0.237067 -0.75544,0.355953 -1.23088,0.355953 -1.05254,0 -1.79944,-0.797278 -1.79944,-1.883834 v -0.01729 c 0,-1.010356 0.75544,-1.85032 1.70615,-1.85032 0.68751,0 1.095,0.220839 1.55347,0.602898 l 0.8231,-0.993423 c -0.61958,-0.526344 -1.26449,-0.814563 -2.33427,-0.814563 -1.79944,0 -3.11505,1.383241 -3.11505,3.072694 v 0.01658 c 0,1.757186 1.27317,3.056114 3.1236,3.056114 1.08659,0 1.92677,-0.424745 2.53792,-0.94227 v -2.580569 h -2.58036 v 1.128889"
         style="fill:#231f20;fill-opacity:1;fill-rule:nonzero;stroke:none;stroke-width:0.0352778"
         id="path1029" />
      <path
         d="m -337.96021,-40.372255 c 0,1.018469 -0.73022,1.850319 -1.78277,1.850319 -1.05254,0 -1.79945,-0.848783 -1.79945,-1.867253 v -0.01693 c 0,-1.01847 0.72994,-1.85032 1.78263,-1.85032 1.0524,0 1.79959,0.848784 1.79959,1.867253 z m -1.78277,-3.089628 c -1.83349,0 -3.16604,1.383241 -3.16604,3.072694 v 0.01693 c 0,1.6891 1.31572,3.055761 3.14922,3.055761 1.83349,0 3.16604,-1.383242 3.16604,-3.072695 v -0.01693 c 0,-1.6891 -1.31576,-3.055761 -3.14922,-3.055761"
         style="fill:#231f20;fill-opacity:1;fill-rule:nonzero;stroke:none;stroke-width:0.0352778"
         id="path1031" />
      <path
         d="m -333.71915,-39.213028 -1.5535,-4.149372 h -1.44293 l 2.40235,5.936898 h 1.15422 l 2.4022,-5.936898 h -1.40917 l -1.55317,4.149372"
         style="fill:#231f20;fill-opacity:1;fill-rule:nonzero;stroke:none;stroke-width:0.0352778"
         id="path1033" />
      <path
         d="m -321.17131,-41.3177 c 0,0.500945 -0.36505,0.839964 -1.00167,0.839964 h -1.32419 v -1.705681 h 1.29896 c 0.63666,0 1.0269,0.288573 1.0269,0.848784 z m 1.32415,-0.06809 v -0.01693 c 0,-0.560211 -0.17818,-1.027289 -0.50916,-1.357842 -0.39042,-0.390878 -0.97621,-0.602897 -1.73164,-0.602897 h -2.71625 v 5.941836 h 1.30704 v -1.901472 h 1.02722 l 1.27328,1.901472 h 1.52784 l -1.4515,-2.122311 c 0.75544,-0.279753 1.27317,-0.88265 1.27317,-1.841853"
         style="fill:#231f20;fill-opacity:1;fill-rule:nonzero;stroke:none;stroke-width:0.0352778"
         id="path1035" />
      <path
         d="m -315.03862,-39.703389 -2.78419,-3.658305 h -1.20551 v 5.941483 h 1.29039 v -3.777192 l 2.87736,3.777192 h 1.1121 v -5.941483 h -1.29015 v 3.658305"
         style="fill:#231f20;fill-opacity:1;fill-rule:nonzero;stroke:none;stroke-width:0.0352778"
         id="path1037" />
      <path
         d="m -308.03277,-40.382486 c 0,1.01847 -0.73025,1.85032 -1.78258,1.85032 -1.05269,0 -1.79952,-0.848431 -1.79952,-1.867253 v -0.01729 c 0,-1.018117 0.72989,-1.85032 1.78258,-1.85032 1.05234,0 1.79952,0.848783 1.79952,1.867606 z m -1.78258,-3.089628 c -1.83339,0 -3.16618,1.383242 -3.16618,3.072695 v 0.01693 c 0,1.6891 1.3155,3.055761 3.14924,3.055761 1.83339,0 3.16618,-1.383594 3.16618,-3.072694 v -0.01729 c 0,-1.688748 -1.31586,-3.055409 -3.14924,-3.055409"
         style="fill:#231f20;fill-opacity:1;fill-rule:nonzero;stroke:none;stroke-width:0.0352778"
         id="path1039" />
      <path
         d="m -288.16714,-39.828978 h 2.80105 v -1.163108 h -2.80105 v -1.205089 h 3.18311 v -1.162756 h -4.48204 v 5.941484 h 4.52437 v -1.162755 h -3.22544 v -1.247776"
         style="fill:#231f20;fill-opacity:1;fill-rule:nonzero;stroke:none;stroke-width:0.0352778"
         id="path1041" />
      <path
         d="m -281.65557,-40.975153 c -1.02729,-0.262819 -1.282,-0.390172 -1.282,-0.780697 v -0.01658 c 0,-0.288925 0.26318,-0.517878 0.76412,-0.517878 0.50094,0 1.01847,0.220486 1.54481,0.585611 l 0.6791,-0.984956 c -0.60254,-0.483658 -1.34091,-0.755297 -2.20698,-0.755297 -1.2139,0 -2.07962,0.713317 -2.07962,1.791053 v 0.01693 c 0,1.180042 0.77258,1.5113 1.9692,1.816806 0.99343,0.254353 1.19698,0.424039 1.19698,0.754944 v 0.01729 c 0,0.348192 -0.32244,0.560212 -0.85725,0.560212 -0.6791,0 -1.23931,-0.280106 -1.77412,-0.721431 l -0.77258,0.924983 c 0.71331,0.636764 1.62136,0.951089 2.5213,0.951089 1.28164,0 2.18122,-0.662164 2.18122,-1.842205 v -0.01693 c 0,-1.035755 -0.67909,-1.468614 -1.88418,-1.782939"
         style="fill:#231f20;fill-opacity:1;fill-rule:nonzero;stroke:none;stroke-width:0.0352778"
         id="path1043" />
      <path
         d="m -274.35272,-43.365222 h -4.92301 v 1.205442 h 1.80798 v 4.736394 h 1.30705 v -4.736394 h 1.80798 v -1.205442"
         style="fill:#231f20;fill-opacity:1;fill-rule:nonzero;stroke:none;stroke-width:0.0352778"
         id="path1045" />
      <path
         d="m -272.96242,-39.915761 0.78952,-1.926519 0.78951,1.926519 z m 0.18309,-3.447697 -2.52554,5.934781 h 1.33245 l 0.54327,-1.332442 h 2.51249 l 0.54327,1.332442 h 1.36667 l -2.52554,-5.934781 h -1.24707"
         style="fill:#231f20;fill-opacity:1;fill-rule:nonzero;stroke:none;stroke-width:0.0352778"
         id="path1047" />
      <path
         d="m -264.03961,-40.379664 c 0,1.050573 -0.72179,1.770592 -1.79106,1.770592 h -1.01035 v -3.575403 h 1.01035 c 1.06927,0 1.79106,0.7366 1.79106,1.787878 z m -1.79106,-2.982736 h -2.31739 v 5.931253 h 2.31739 c 1.86726,0 3.15737,-1.296458 3.15737,-2.96545 v -0.01729 c 0,-1.668992 -1.29011,-2.948517 -3.15737,-2.948517"
         style="fill:#231f20;fill-opacity:1;fill-rule:nonzero;stroke:none;stroke-width:0.0352778"
         id="path1049" />
      <path
         d="m -257.00946,-40.372255 c 0,1.018469 -0.72989,1.850319 -1.78223,1.850319 -1.05269,0 -1.79952,-0.848783 -1.79952,-1.867253 v -0.01693 c 0,-1.01847 0.7299,-1.85032 1.78223,-1.85032 1.05269,0 1.79952,0.848784 1.79952,1.867253 z m -1.78223,-3.089628 c -1.83374,0 -3.16618,1.383241 -3.16618,3.072694 v 0.01693 c 0,1.6891 1.31586,3.055761 3.14889,3.055761 1.83374,0 3.16618,-1.383242 3.16618,-3.072695 v -0.01693 c 0,-1.6891 -1.3155,-3.055761 -3.14889,-3.055761"
         style="fill:#231f20;fill-opacity:1;fill-rule:nonzero;stroke:none;stroke-width:0.0352778"
         id="path1051" />
      <path
         d="m -328.74901,-39.834269 h 2.79979 v -1.162403 h -2.79979 v -1.204736 h 3.18149 v -1.162403 h -4.47961 v 5.939014 h 4.52205 V -38.5872 h -3.22393 v -1.247069"
         style="fill:#231f20;fill-opacity:1;fill-rule:nonzero;stroke:none;stroke-width:0.0352778"
         id="path1053" />
      <path
         d="m -300.23603,-40.3779 c 0,1.050925 -0.72178,1.771298 -1.79105,1.771298 h -1.01035 v -3.576815 h 1.01035 c 1.06927,0 1.79105,0.736953 1.79105,1.788231 z m -1.79105,-2.983794 h -2.3174 v 5.933369 h 2.3174 c 1.86725,0 3.15772,-1.297164 3.15772,-2.966861 v -0.01693 c 0,-1.669698 -1.29047,-2.949575 -3.15772,-2.949575"
         style="fill:#231f20;fill-opacity:1;fill-rule:nonzero;stroke:none;stroke-width:0.0352778"
         id="path1055" />
      <path
         d="m -293.15472,-40.374019 c 0,1.018469 -0.72989,1.850672 -1.78258,1.850672 -1.05269,0 -1.79952,-0.849136 -1.79952,-1.867606 v -0.01693 c 0,-1.018822 0.72989,-1.850672 1.78258,-1.850672 1.05234,0 1.79952,0.848783 1.79952,1.867605 z m -1.78258,-3.089628 c -1.83339,0 -3.16618,1.383594 -3.16618,3.072694 v 0.01693 c 0,1.689453 1.31586,3.055761 3.14924,3.055761 1.83339,0 3.16618,-1.383595 3.16618,-3.072695 v -0.01693 c 0,-1.6891 -1.31586,-3.055761 -3.14924,-3.055761"
         style="fill:#231f20;fill-opacity:1;fill-rule:nonzero;stroke:none;stroke-width:0.0352778"
         id="path1057" />
      <path
         d="m -348.51076,-26.525691 h -0.81993 v 8.347745 h 0.81993 v -8.347745"
         style="fill:#231f20;fill-opacity:1;fill-rule:nonzero;stroke:none;stroke-width:0.0352778"
         id="path1059" />
      <g
         id="g1061"
         transform="matrix(0.3527778,0,0,-0.3527778,-349.34199,0.53938608)">
        <text
           transform="matrix(1,0,0,-1,19.0113,69.4891)"
           style="font-variant:normal;font-weight:normal;font-size:13.0593px;font-family:Verdana;-inkscape-font-specification:Verdana;writing-mode:lr-tb;fill:#231f20;fill-opacity:1;fill-rule:nonzero;stroke:none"
           id="text1067"><tspan
             x="0 8.9325609 16.715904 23.510546 29.086868 36.870209 42.015575 49.864212 55.440536 59.018784 66.867424 71.464294 79.58007"
             y="0"
             sodipodi:role="line"
             id="tspan1063">Secretaria de</tspan><tspan
             x="0 8.9325609 17.068504 22.644827 26.223074 33.02697 41.293507 44.87265 50.018017 58.282177 63.625931 71.469193 76.060501 83.839806 88.431122 97.358376 105.49509 113.33834 120.14223 125.28824 133.06754 139.87143 143.45541 156.15752 163.93681 172.20097 177.34697"
             y="16.291"
             sodipodi:role="line"
             id="tspan1065">Agricultura e Abastecimento</tspan></text>
      </g>
    </g>
  </g>
</svg>
